<svg id="visual" viewBox="0 0 900 200" width="900" height="200" xmlns="http://www.w3.org/2000/svg" xmlns:xlink="http://www.w3.org/1999/xlink" version="1.1"><rect x="0" y="0" width="900" height="200" fill="#2F4858"></rect><path d="M0 42L90 61L180 40L270 54L360 53L450 52L540 71L630 50L720 39L810 40L900 56L900 201L810 201L720 201L630 201L540 201L450 201L360 201L270 201L180 201L90 201L0 201Z" fill="#2f4858"></path><path d="M0 86L90 66L180 62L270 69L360 77L450 70L540 53L630 77L720 51L810 65L900 55L900 201L810 201L720 201L630 201L540 201L450 201L360 201L270 201L180 201L90 201L0 201Z" fill="#185e6f"></path><path d="M0 78L90 72L180 72L270 98L360 101L450 79L540 93L630 93L720 94L810 78L900 74L900 201L810 201L720 201L630 201L540 201L450 201L360 201L270 201L180 201L90 201L0 201Z" fill="#00747b"></path><path d="M0 107L90 110L180 101L270 118L360 99L450 95L540 91L630 109L720 122L810 92L900 116L900 201L810 201L720 201L630 201L540 201L450 201L360 201L270 201L180 201L90 201L0 201Z" fill="#008b7a"></path><path d="M0 119L90 128L180 122L270 126L360 125L450 123L540 134L630 114L720 127L810 135L900 115L900 201L810 201L720 201L630 201L540 201L450 201L360 201L270 201L180 201L90 201L0 201Z" fill="#289f6d"></path><path d="M0 130L90 151L180 135L270 148L360 139L450 137L540 148L630 140L720 144L810 149L900 144L900 201L810 201L720 201L630 201L540 201L450 201L360 201L270 201L180 201L90 201L0 201Z" fill="#62b154"></path><path d="M0 170L90 156L180 159L270 151L360 156L450 149L540 158L630 161L720 158L810 167L900 168L900 201L810 201L720 201L630 201L540 201L450 201L360 201L270 201L180 201L90 201L0 201Z" fill="#9ebe34"></path><path d="M0 184L90 168L180 173L270 185L360 175L450 176L540 168L630 182L720 177L810 174L900 176L900 201L810 201L720 201L630 201L540 201L450 201L360 201L270 201L180 201L90 201L0 201Z" fill="#e1c40f"></path></svg>