<svg id="visual" viewBox="0 0 900 200" width="900" height="200" xmlns="http://www.w3.org/2000/svg" xmlns:xlink="http://www.w3.org/1999/xlink" version="1.1"><rect x="0" y="0" width="900" height="200" fill="#81B93F"></rect><path d="M0 49L21.5 47C43 45 86 41 128.8 47.5C171.7 54 214.3 71 257.2 72.5C300 74 343 60 385.8 56.5C428.7 53 471.3 60 514.2 60.5C557 61 600 55 642.8 54.7C685.7 54.3 728.3 59.7 771.2 65.5C814 71.3 857 77.7 878.5 80.8L900 84L900 201L878.5 201C857 201 814 201 771.2 201C728.3 201 685.7 201 642.8 201C600 201 557 201 514.2 201C471.3 201 428.7 201 385.8 201C343 201 300 201 257.2 201C214.3 201 171.7 201 128.8 201C86 201 43 201 21.5 201L0 201Z" fill="#81b93f"></path><path d="M0 87L21.5 89.7C43 92.3 86 97.7 128.8 93C171.7 88.3 214.3 73.7 257.2 69C300 64.3 343 69.7 385.8 72.5C428.7 75.3 471.3 75.7 514.2 75.3C557 75 600 74 642.8 77.8C685.7 81.7 728.3 90.3 771.2 95.2C814 100 857 101 878.5 101.5L900 102L900 201L878.5 201C857 201 814 201 771.2 201C728.3 201 685.7 201 642.8 201C600 201 557 201 514.2 201C471.3 201 428.7 201 385.8 201C343 201 300 201 257.2 201C214.3 201 171.7 201 128.8 201C86 201 43 201 21.5 201L0 201Z" fill="#72b647"></path><path d="M0 91L21.5 92.7C43 94.3 86 97.7 128.8 101.3C171.7 105 214.3 109 257.2 108.2C300 107.3 343 101.7 385.8 98C428.7 94.3 471.3 92.7 514.2 90.3C557 88 600 85 642.8 90.2C685.7 95.3 728.3 108.7 771.2 107.5C814 106.3 857 90.7 878.5 82.8L900 75L900 201L878.5 201C857 201 814 201 771.2 201C728.3 201 685.7 201 642.8 201C600 201 557 201 514.2 201C471.3 201 428.7 201 385.8 201C343 201 300 201 257.2 201C214.3 201 171.7 201 128.8 201C86 201 43 201 21.5 201L0 201Z" fill="#63b34e"></path><path d="M0 123L21.5 125.7C43 128.3 86 133.7 128.8 133.7C171.7 133.7 214.3 128.3 257.2 125.2C300 122 343 121 385.8 117.5C428.7 114 471.3 108 514.2 104.7C557 101.3 600 100.7 642.8 106.3C685.7 112 728.3 124 771.2 125.8C814 127.7 857 119.3 878.5 115.2L900 111L900 201L878.5 201C857 201 814 201 771.2 201C728.3 201 685.7 201 642.8 201C600 201 557 201 514.2 201C471.3 201 428.7 201 385.8 201C343 201 300 201 257.2 201C214.3 201 171.7 201 128.8 201C86 201 43 201 21.5 201L0 201Z" fill="#54af55"></path><path d="M0 140L21.5 138.2C43 136.3 86 132.7 128.8 130.8C171.7 129 214.3 129 257.2 129.3C300 129.7 343 130.3 385.8 131.3C428.7 132.3 471.3 133.7 514.2 134.2C557 134.7 600 134.3 642.8 133.5C685.7 132.7 728.3 131.3 771.2 131.5C814 131.7 857 133.3 878.5 134.2L900 135L900 201L878.5 201C857 201 814 201 771.2 201C728.3 201 685.7 201 642.8 201C600 201 557 201 514.2 201C471.3 201 428.7 201 385.8 201C343 201 300 201 257.2 201C214.3 201 171.7 201 128.8 201C86 201 43 201 21.5 201L0 201Z" fill="#45ab5b"></path><path d="M0 159L21.5 156.8C43 154.7 86 150.3 128.8 148.5C171.7 146.7 214.3 147.3 257.2 150.3C300 153.3 343 158.7 385.8 158.7C428.7 158.7 471.3 153.3 514.2 149.3C557 145.3 600 142.7 642.8 145.3C685.7 148 728.3 156 771.2 159.5C814 163 857 162 878.5 161.5L900 161L900 201L878.5 201C857 201 814 201 771.2 201C728.3 201 685.7 201 642.8 201C600 201 557 201 514.2 201C471.3 201 428.7 201 385.8 201C343 201 300 201 257.2 201C214.3 201 171.7 201 128.8 201C86 201 43 201 21.5 201L0 201Z" fill="#34a761"></path><path d="M0 171L21.5 173.2C43 175.3 86 179.7 128.8 180.2C171.7 180.7 214.3 177.3 257.2 174.8C300 172.3 343 170.7 385.8 170.2C428.7 169.7 471.3 170.3 514.2 169.5C557 168.7 600 166.3 642.8 166.5C685.7 166.7 728.3 169.3 771.2 169.8C814 170.3 857 168.7 878.5 167.8L900 167L900 201L878.5 201C857 201 814 201 771.2 201C728.3 201 685.7 201 642.8 201C600 201 557 201 514.2 201C471.3 201 428.7 201 385.8 201C343 201 300 201 257.2 201C214.3 201 171.7 201 128.8 201C86 201 43 201 21.5 201L0 201Z" fill="#1fa367"></path></svg>