<svg id="visual" viewBox="0 0 900 200" width="900" height="200" xmlns="http://www.w3.org/2000/svg" xmlns:xlink="http://www.w3.org/1999/xlink" version="1.1"><rect x="0" y="0" width="900" height="200" fill="#1FA367"></rect><path d="M0 142L69 142L69 135L138 135L138 160L208 160L208 139L277 139L277 165L346 165L346 159L415 159L415 136L485 136L485 136L554 136L554 174L623 174L623 129L692 129L692 145L762 145L762 132L831 132L831 143L900 143L900 153L900 0L900 0L831 0L831 0L762 0L762 0L692 0L692 0L623 0L623 0L554 0L554 0L485 0L485 0L415 0L415 0L346 0L346 0L277 0L277 0L208 0L208 0L138 0L138 0L69 0L69 0L0 0Z" fill="#1fa367"></path><path d="M0 138L69 138L69 137L138 137L138 111L208 111L208 145L277 145L277 130L346 130L346 122L415 122L415 131L485 131L485 135L554 135L554 129L623 129L623 133L692 133L692 147L762 147L762 143L831 143L831 131L900 131L900 127L900 0L900 0L831 0L831 0L762 0L762 0L692 0L692 0L623 0L623 0L554 0L554 0L485 0L485 0L415 0L415 0L346 0L346 0L277 0L277 0L208 0L208 0L138 0L138 0L69 0L69 0L0 0Z" fill="#45ab5b"></path><path d="M0 119L69 119L69 107L138 107L138 128L208 128L208 119L277 119L277 95L346 95L346 92L415 92L415 119L485 119L485 116L554 116L554 118L623 118L623 100L692 100L692 103L762 103L762 105L831 105L831 118L900 118L900 102L900 0L900 0L831 0L831 0L762 0L762 0L692 0L692 0L623 0L623 0L554 0L554 0L485 0L485 0L415 0L415 0L346 0L346 0L277 0L277 0L208 0L208 0L138 0L138 0L69 0L69 0L0 0Z" fill="#64b34e"></path><path d="M0 87L69 87L69 100L138 100L138 97L208 97L208 84L277 84L277 95L346 95L346 90L415 90L415 76L485 76L485 89L554 89L554 82L623 82L623 93L692 93L692 70L762 70L762 92L831 92L831 102L900 102L900 75L900 0L900 0L831 0L831 0L762 0L762 0L692 0L692 0L623 0L623 0L554 0L554 0L485 0L485 0L415 0L415 0L346 0L346 0L277 0L277 0L208 0L208 0L138 0L138 0L69 0L69 0L0 0Z" fill="#82b93f"></path><path d="M0 77L69 77L69 64L138 64L138 55L208 55L208 70L277 70L277 56L346 56L346 53L415 53L415 54L485 54L485 75L554 75L554 77L623 77L623 61L692 61L692 58L762 58L762 82L831 82L831 55L900 55L900 72L900 0L900 0L831 0L831 0L762 0L762 0L692 0L692 0L623 0L623 0L554 0L554 0L485 0L485 0L415 0L415 0L346 0L346 0L277 0L277 0L208 0L208 0L138 0L138 0L69 0L69 0L0 0Z" fill="#a0be2f"></path><path d="M0 43L69 43L69 32L138 32L138 37L208 37L208 55L277 55L277 42L346 42L346 39L415 39L415 52L485 52L485 44L554 44L554 47L623 47L623 39L692 39L692 51L762 51L762 56L831 56L831 43L900 43L900 43L900 0L900 0L831 0L831 0L762 0L762 0L692 0L692 0L623 0L623 0L554 0L554 0L485 0L485 0L415 0L415 0L346 0L346 0L277 0L277 0L208 0L208 0L138 0L138 0L69 0L69 0L0 0Z" fill="#c0c21e"></path><path d="M0 36L69 36L69 14L138 14L138 12L208 12L208 26L277 26L277 29L346 29L346 23L415 23L415 12L485 12L485 33L554 33L554 35L623 35L623 23L692 23L692 16L762 16L762 22L831 22L831 13L900 13L900 14L900 0L900 0L831 0L831 0L762 0L762 0L692 0L692 0L623 0L623 0L554 0L554 0L485 0L485 0L415 0L415 0L346 0L346 0L277 0L277 0L208 0L208 0L138 0L138 0L69 0L69 0L0 0Z" fill="#e1c40f"></path></svg>