<svg id="visual" viewBox="0 0 900 200" width="900" height="200" xmlns="http://www.w3.org/2000/svg" xmlns:xlink="http://www.w3.org/1999/xlink" version="1.1"><path d="M0 19L82 19L82 17L164 17L164 15L245 15L245 17L327 17L327 21L409 21L409 19L491 19L491 23L573 23L573 11L655 11L655 17L736 17L736 13L818 13L818 25L900 25L900 11L900 0L900 0L818 0L818 0L736 0L736 0L655 0L655 0L573 0L573 0L491 0L491 0L409 0L409 0L327 0L327 0L245 0L245 0L164 0L164 0L82 0L82 0L0 0Z" fill="#00867c"></path><path d="M0 35L82 35L82 41L164 41L164 49L245 49L245 59L327 59L327 57L409 57L409 43L491 43L491 63L573 63L573 49L655 49L655 39L736 39L736 47L818 47L818 55L900 55L900 35L900 9L900 23L818 23L818 11L736 11L736 15L655 15L655 9L573 9L573 21L491 21L491 17L409 17L409 19L327 19L327 15L245 15L245 13L164 13L164 15L82 15L82 17L0 17Z" fill="#008f7a"></path><path d="M0 53L82 53L82 49L164 49L164 77L245 77L245 77L327 77L327 69L409 69L409 59L491 59L491 71L573 71L573 75L655 75L655 55L736 55L736 67L818 67L818 63L900 63L900 63L900 33L900 53L818 53L818 45L736 45L736 37L655 37L655 47L573 47L573 61L491 61L491 41L409 41L409 55L327 55L327 57L245 57L245 47L164 47L164 39L82 39L82 33L0 33Z" fill="#0d9775"></path><path d="M0 91L82 91L82 109L164 109L164 133L245 133L245 107L327 107L327 109L409 109L409 109L491 109L491 121L573 121L573 109L655 109L655 81L736 81L736 113L818 113L818 117L900 117L900 127L900 61L900 61L818 61L818 65L736 65L736 53L655 53L655 73L573 73L573 69L491 69L491 57L409 57L409 67L327 67L327 75L245 75L245 75L164 75L164 47L82 47L82 51L0 51Z" fill="#269f6e"></path><path d="M0 145L82 145L82 155L164 155L164 165L245 165L245 157L327 157L327 159L409 159L409 151L491 151L491 165L573 165L573 153L655 153L655 143L736 143L736 157L818 157L818 157L900 157L900 163L900 125L900 115L818 115L818 111L736 111L736 79L655 79L655 107L573 107L573 119L491 119L491 107L409 107L409 107L327 107L327 105L245 105L245 131L164 131L164 107L82 107L82 89L0 89Z" fill="#3ca765"></path><path d="M0 163L82 163L82 173L164 173L164 179L245 179L245 173L327 173L327 181L409 181L409 187L491 187L491 177L573 177L573 181L655 181L655 173L736 173L736 183L818 183L818 183L900 183L900 177L900 161L900 155L818 155L818 155L736 155L736 141L655 141L655 151L573 151L573 163L491 163L491 149L409 149L409 157L327 157L327 155L245 155L245 163L164 163L164 153L82 153L82 143L0 143Z" fill="#53ad5a"></path><path d="M0 183L82 183L82 183L164 183L164 193L245 193L245 185L327 185L327 195L409 195L409 195L491 195L491 189L573 189L573 193L655 193L655 185L736 185L736 193L818 193L818 193L900 193L900 187L900 175L900 181L818 181L818 181L736 181L736 171L655 171L655 179L573 179L573 175L491 175L491 185L409 185L409 179L327 179L327 171L245 171L245 177L164 177L164 171L82 171L82 161L0 161Z" fill="#69b44d"></path><path d="M0 201L82 201L82 201L164 201L164 201L245 201L245 201L327 201L327 201L409 201L409 201L491 201L491 201L573 201L573 201L655 201L655 201L736 201L736 201L818 201L818 201L900 201L900 201L900 185L900 191L818 191L818 191L736 191L736 183L655 183L655 191L573 191L573 187L491 187L491 193L409 193L409 193L327 193L327 183L245 183L245 191L164 191L164 181L82 181L82 181L0 181Z" fill="#81b93f"></path></svg>