<svg id="visual" viewBox="0 0 900 200" width="900" height="200" xmlns="http://www.w3.org/2000/svg" xmlns:xlink="http://www.w3.org/1999/xlink" version="1.1"><path d="M0 35L90 29L180 13L270 13L360 25L450 21L540 29L630 31L720 31L810 23L900 25L900 0L810 0L720 0L630 0L540 0L450 0L360 0L270 0L180 0L90 0L0 0Z" fill="#1fa367"></path><path d="M0 65L90 49L180 31L270 29L360 57L450 37L540 57L630 73L720 43L810 61L900 37L900 23L810 21L720 29L630 29L540 27L450 19L360 23L270 11L180 11L90 27L0 33Z" fill="#55af55"></path><path d="M0 89L90 67L180 67L270 47L360 111L450 63L540 93L630 97L720 77L810 107L900 77L900 35L810 59L720 41L630 71L540 55L450 35L360 55L270 27L180 29L90 47L0 63Z" fill="#82b93f"></path><path d="M0 121L90 97L180 163L270 153L360 177L450 147L540 123L630 129L720 165L810 165L900 105L900 75L810 105L720 75L630 95L540 91L450 61L360 109L270 45L180 65L90 65L0 87Z" fill="#b0c027"></path><path d="M0 201L90 201L180 201L270 201L360 201L450 201L540 201L630 201L720 201L810 201L900 201L900 103L810 163L720 163L630 127L540 121L450 145L360 175L270 151L180 161L90 95L0 119Z" fill="#e1c40f"></path></svg>