<svg id="visual" viewBox="0 0 900 200" width="900" height="200" xmlns="http://www.w3.org/2000/svg" xmlns:xlink="http://www.w3.org/1999/xlink" version="1.1"><path d="M0 17L9.3 18C18.7 19 37.3 21 56.2 21.7C75 22.3 94 21.7 112.8 19.7C131.7 17.7 150.3 14.3 169 14C187.7 13.7 206.3 16.3 225 18C243.7 19.7 262.3 20.3 281.2 18.3C300 16.3 319 11.7 337.8 9.3C356.7 7 375.3 7 394 9.3C412.7 11.7 431.3 16.3 450 19C468.7 21.7 487.3 22.3 506.2 20.3C525 18.3 544 13.7 562.8 14.7C581.7 15.7 600.3 22.3 619 22.3C637.7 22.3 656.3 15.7 675 15.3C693.7 15 712.3 21 731.2 24C750 27 769 27 787.8 24C806.7 21 825.3 15 844 15C862.7 15 881.3 21 890.7 24L900 27L900 0L890.7 0C881.3 0 862.7 0 844 0C825.3 0 806.7 0 787.8 0C769 0 750 0 731.2 0C712.3 0 693.7 0 675 0C656.3 0 637.7 0 619 0C600.3 0 581.7 0 562.8 0C544 0 525 0 506.2 0C487.3 0 468.7 0 450 0C431.3 0 412.7 0 394 0C375.3 0 356.7 0 337.8 0C319 0 300 0 281.2 0C262.3 0 243.7 0 225 0C206.3 0 187.7 0 169 0C150.3 0 131.7 0 112.8 0C94 0 75 0 56.2 0C37.3 0 18.7 0 9.3 0L0 0Z" fill="#e1c40f"></path><path d="M0 37L9.3 36.7C18.7 36.3 37.3 35.7 56.2 36C75 36.3 94 37.7 112.8 35.7C131.7 33.7 150.3 28.3 169 26.3C187.7 24.3 206.3 25.7 225 27.7C243.7 29.7 262.3 32.3 281.2 30C300 27.7 319 20.3 337.8 19.7C356.7 19 375.3 25 394 28.7C412.7 32.3 431.3 33.7 450 34.3C468.7 35 487.3 35 506.2 34C525 33 544 31 562.8 31.7C581.7 32.3 600.3 35.7 619 34C637.7 32.3 656.3 25.7 675 27C693.7 28.3 712.3 37.7 731.2 40C750 42.3 769 37.7 787.8 34.7C806.7 31.7 825.3 30.3 844 31.3C862.7 32.3 881.3 35.7 890.7 37.3L900 39L900 25L890.7 22C881.3 19 862.7 13 844 13C825.3 13 806.7 19 787.8 22C769 25 750 25 731.2 22C712.3 19 693.7 13 675 13.3C656.3 13.7 637.7 20.3 619 20.3C600.3 20.3 581.7 13.7 562.8 12.7C544 11.7 525 16.3 506.2 18.3C487.3 20.3 468.7 19.7 450 17C431.3 14.3 412.7 9.7 394 7.3C375.3 5 356.7 5 337.8 7.3C319 9.7 300 14.3 281.2 16.3C262.3 18.3 243.7 17.7 225 16C206.3 14.3 187.7 11.7 169 12C150.3 12.3 131.7 15.7 112.8 17.7C94 19.7 75 20.3 56.2 19.7C37.3 19 18.7 17 9.3 16L0 15Z" fill="#b1c12a"></path><path d="M0 83L9.3 81C18.7 79 37.3 75 56.2 74.3C75 73.7 94 76.3 112.8 70.3C131.7 64.3 150.3 49.7 169 45.3C187.7 41 206.3 47 225 52.3C243.7 57.7 262.3 62.3 281.2 64.3C300 66.3 319 65.7 337.8 65.3C356.7 65 375.3 65 394 65C412.7 65 431.3 65 450 68C468.7 71 487.3 77 506.2 78C525 79 544 75 562.8 75C581.7 75 600.3 79 619 74.3C637.7 69.7 656.3 56.3 675 56C693.7 55.7 712.3 68.3 731.2 73.7C750 79 769 77 787.8 72.3C806.7 67.7 825.3 60.3 844 60.7C862.7 61 881.3 69 890.7 73L900 77L900 37L890.7 35.3C881.3 33.7 862.7 30.3 844 29.3C825.3 28.3 806.7 29.7 787.8 32.7C769 35.7 750 40.3 731.2 38C712.3 35.7 693.7 26.3 675 25C656.3 23.7 637.7 30.3 619 32C600.3 33.7 581.7 30.3 562.8 29.7C544 29 525 31 506.2 32C487.3 33 468.7 33 450 32.3C431.3 31.7 412.7 30.3 394 26.7C375.3 23 356.7 17 337.8 17.7C319 18.3 300 25.7 281.2 28C262.3 30.3 243.7 27.7 225 25.7C206.3 23.7 187.7 22.3 169 24.3C150.3 26.3 131.7 31.7 112.8 33.7C94 35.7 75 34.3 56.2 34C37.3 33.7 18.7 34.3 9.3 34.7L0 35Z" fill="#85b943"></path><path d="M0 151L9.3 142C18.7 133 37.3 115 56.2 111C75 107 94 117 112.8 118C131.7 119 150.3 111 169 111.7C187.7 112.3 206.3 121.7 225 128C243.7 134.3 262.3 137.7 281.2 138C300 138.3 319 135.7 337.8 131C356.7 126.3 375.3 119.7 394 117C412.7 114.3 431.3 115.7 450 117C468.7 118.3 487.3 119.7 506.2 116C525 112.3 544 103.7 562.8 101.3C581.7 99 600.3 103 619 100C637.7 97 656.3 87 675 85.7C693.7 84.3 712.3 91.7 731.2 96C750 100.3 769 101.7 787.8 101.3C806.7 101 825.3 99 844 100.7C862.7 102.3 881.3 107.7 890.7 110.3L900 113L900 75L890.7 71C881.3 67 862.7 59 844 58.7C825.3 58.3 806.7 65.7 787.8 70.3C769 75 750 77 731.2 71.7C712.3 66.3 693.7 53.7 675 54C656.3 54.3 637.7 67.7 619 72.3C600.3 77 581.7 73 562.8 73C544 73 525 77 506.2 76C487.3 75 468.7 69 450 66C431.3 63 412.7 63 394 63C375.3 63 356.7 63 337.8 63.3C319 63.7 300 64.3 281.2 62.3C262.3 60.3 243.7 55.7 225 50.3C206.3 45 187.7 39 169 43.3C150.3 47.7 131.7 62.3 112.8 68.3C94 74.3 75 71.7 56.2 72.3C37.3 73 18.7 77 9.3 79L0 81Z" fill="#5caf59"></path><path d="M0 165L9.3 159C18.7 153 37.3 141 56.2 138.7C75 136.3 94 143.7 112.8 143.3C131.7 143 150.3 135 169 135.3C187.7 135.7 206.3 144.3 225 151C243.7 157.7 262.3 162.3 281.2 163.7C300 165 319 163 337.8 157.7C356.7 152.3 375.3 143.7 394 140.7C412.7 137.7 431.3 140.3 450 141.3C468.7 142.3 487.3 141.7 506.2 139C525 136.3 544 131.7 562.8 130C581.7 128.3 600.3 129.7 619 124C637.7 118.3 656.3 105.7 675 105.3C693.7 105 712.3 117 731.2 123.3C750 129.7 769 130.3 787.8 128.3C806.7 126.3 825.3 121.7 844 121C862.7 120.3 881.3 123.7 890.7 125.3L900 127L900 111L890.7 108.3C881.3 105.7 862.7 100.3 844 98.7C825.3 97 806.7 99 787.8 99.3C769 99.7 750 98.3 731.2 94C712.3 89.7 693.7 82.3 675 83.7C656.3 85 637.7 95 619 98C600.3 101 581.7 97 562.8 99.3C544 101.7 525 110.3 506.2 114C487.3 117.7 468.7 116.3 450 115C431.3 113.7 412.7 112.3 394 115C375.3 117.7 356.7 124.3 337.8 129C319 133.7 300 136.3 281.2 136C262.3 135.7 243.7 132.3 225 126C206.3 119.7 187.7 110.3 169 109.7C150.3 109 131.7 117 112.8 116C94 115 75 105 56.2 109C37.3 113 18.7 131 9.3 140L0 149Z" fill="#36a36b"></path><path d="M0 183L9.3 181C18.7 179 37.3 175 56.2 173.7C75 172.3 94 173.7 112.8 175C131.7 176.3 150.3 177.7 169 177C187.7 176.3 206.3 173.7 225 174.7C243.7 175.7 262.3 180.3 281.2 183.3C300 186.3 319 187.7 337.8 185C356.7 182.3 375.3 175.7 394 173C412.7 170.3 431.3 171.7 450 174.3C468.7 177 487.3 181 506.2 183.3C525 185.7 544 186.3 562.8 186.3C581.7 186.3 600.3 185.7 619 184.3C637.7 183 656.3 181 675 181.7C693.7 182.3 712.3 185.7 731.2 185.7C750 185.7 769 182.3 787.8 181.3C806.7 180.3 825.3 181.7 844 183.7C862.7 185.7 881.3 188.3 890.7 189.7L900 191L900 125L890.7 123.3C881.3 121.7 862.7 118.3 844 119C825.3 119.7 806.7 124.3 787.8 126.3C769 128.3 750 127.7 731.2 121.3C712.3 115 693.7 103 675 103.3C656.3 103.7 637.7 116.3 619 122C600.3 127.7 581.7 126.3 562.8 128C544 129.7 525 134.3 506.2 137C487.3 139.7 468.7 140.3 450 139.3C431.3 138.3 412.7 135.7 394 138.7C375.3 141.7 356.7 150.3 337.8 155.7C319 161 300 163 281.2 161.7C262.3 160.3 243.7 155.7 225 149C206.3 142.3 187.7 133.7 169 133.3C150.3 133 131.7 141 112.8 141.3C94 141.7 75 134.3 56.2 136.7C37.3 139 18.7 151 9.3 157L0 163Z" fill="#0f9577"></path><path d="M0 201L9.3 201C18.7 201 37.3 201 56.2 201C75 201 94 201 112.8 201C131.7 201 150.3 201 169 201C187.7 201 206.3 201 225 201C243.7 201 262.3 201 281.2 201C300 201 319 201 337.8 201C356.7 201 375.3 201 394 201C412.7 201 431.3 201 450 201C468.7 201 487.3 201 506.2 201C525 201 544 201 562.8 201C581.7 201 600.3 201 619 201C637.7 201 656.3 201 675 201C693.7 201 712.3 201 731.2 201C750 201 769 201 787.8 201C806.7 201 825.3 201 844 201C862.7 201 881.3 201 890.7 201L900 201L900 189L890.7 187.7C881.3 186.3 862.7 183.7 844 181.7C825.3 179.7 806.7 178.3 787.8 179.3C769 180.3 750 183.7 731.2 183.7C712.3 183.7 693.7 180.3 675 179.7C656.3 179 637.7 181 619 182.3C600.3 183.7 581.7 184.3 562.8 184.3C544 184.3 525 183.7 506.2 181.3C487.3 179 468.7 175 450 172.3C431.3 169.7 412.7 168.3 394 171C375.3 173.7 356.7 180.3 337.8 183C319 185.7 300 184.3 281.2 181.3C262.3 178.3 243.7 173.7 225 172.7C206.3 171.7 187.7 174.3 169 175C150.3 175.7 131.7 174.3 112.8 173C94 171.7 75 170.3 56.2 171.7C37.3 173 18.7 177 9.3 179L0 181Z" fill="#00867c"></path></svg>