<svg id="visual" viewBox="0 0 900 200" width="900" height="200" xmlns="http://www.w3.org/2000/svg" xmlns:xlink="http://www.w3.org/1999/xlink" version="1.1"><rect x="0" y="0" width="900" height="200" fill="#006777"></rect><path d="M0 126L90 158L180 122L270 144L360 158L450 162L540 129L630 146L720 129L810 144L900 135L900 0L810 0L720 0L630 0L540 0L450 0L360 0L270 0L180 0L90 0L0 0Z" fill="#006777"></path><path d="M0 100L90 138L180 128L270 132L360 108L450 131L540 114L630 108L720 135L810 122L900 101L900 0L810 0L720 0L630 0L540 0L450 0L360 0L270 0L180 0L90 0L0 0Z" fill="#00747c"></path><path d="M0 97L90 105L180 85L270 85L360 96L450 98L540 104L630 96L720 82L810 96L900 99L900 0L810 0L720 0L630 0L540 0L450 0L360 0L270 0L180 0L90 0L0 0Z" fill="#00817e"></path><path d="M0 69L90 63L180 66L270 60L360 84L450 89L540 63L630 83L720 79L810 69L900 58L900 0L810 0L720 0L630 0L540 0L450 0L360 0L270 0L180 0L90 0L0 0Z" fill="#008d7c"></path><path d="M0 52L90 54L180 40L270 55L360 38L450 63L540 55L630 55L720 49L810 61L900 50L900 0L810 0L720 0L630 0L540 0L450 0L360 0L270 0L180 0L90 0L0 0Z" fill="#009875"></path><path d="M0 33L90 29L180 26L270 24L360 27L450 20L540 33L630 37L720 21L810 23L900 31L900 0L810 0L720 0L630 0L540 0L450 0L360 0L270 0L180 0L90 0L0 0Z" fill="#1fa367"></path></svg>