<svg id="visual" viewBox="0 0 900 200" width="900" height="200" xmlns="http://www.w3.org/2000/svg" xmlns:xlink="http://www.w3.org/1999/xlink" version="1.1"><rect x="0" y="0" width="900" height="200" fill="#1FA367"></rect><path d="M0 155L18.8 150.7C37.7 146.3 75.3 137.7 112.8 134.5C150.3 131.3 187.7 133.7 225.2 132.8C262.7 132 300.3 128 337.8 131.3C375.3 134.7 412.7 145.3 450.2 148.7C487.7 152 525.3 148 562.8 146C600.3 144 637.7 144 675.2 145C712.7 146 750.3 148 787.8 148C825.3 148 862.7 146 881.3 145L900 144L900 0L881.3 0C862.7 0 825.3 0 787.8 0C750.3 0 712.7 0 675.2 0C637.7 0 600.3 0 562.8 0C525.3 0 487.7 0 450.2 0C412.7 0 375.3 0 337.8 0C300.3 0 262.7 0 225.2 0C187.7 0 150.3 0 112.8 0C75.3 0 37.7 0 18.8 0L0 0Z" fill="#1fa367"></path><path d="M0 122L18.8 118.7C37.7 115.3 75.3 108.7 112.8 106C150.3 103.3 187.7 104.7 225.2 108.2C262.7 111.7 300.3 117.3 337.8 116.2C375.3 115 412.7 107 450.2 106.8C487.7 106.7 525.3 114.3 562.8 120.7C600.3 127 637.7 132 675.2 130.8C712.7 129.7 750.3 122.3 787.8 117.3C825.3 112.3 862.7 109.7 881.3 108.3L900 107L900 0L881.3 0C862.7 0 825.3 0 787.8 0C750.3 0 712.7 0 675.2 0C637.7 0 600.3 0 562.8 0C525.3 0 487.7 0 450.2 0C412.7 0 375.3 0 337.8 0C300.3 0 262.7 0 225.2 0C187.7 0 150.3 0 112.8 0C75.3 0 37.7 0 18.8 0L0 0Z" fill="#009379"></path><path d="M0 83L18.8 82.5C37.7 82 75.3 81 112.8 84.7C150.3 88.3 187.7 96.7 225.2 99.2C262.7 101.7 300.3 98.3 337.8 99.8C375.3 101.3 412.7 107.7 450.2 106.8C487.7 106 525.3 98 562.8 92C600.3 86 637.7 82 675.2 81.3C712.7 80.7 750.3 83.3 787.8 87.2C825.3 91 862.7 96 881.3 98.5L900 101L900 0L881.3 0C862.7 0 825.3 0 787.8 0C750.3 0 712.7 0 675.2 0C637.7 0 600.3 0 562.8 0C525.3 0 487.7 0 450.2 0C412.7 0 375.3 0 337.8 0C300.3 0 262.7 0 225.2 0C187.7 0 150.3 0 112.8 0C75.3 0 37.7 0 18.8 0L0 0Z" fill="#00807f"></path><path d="M0 73L18.8 74.8C37.7 76.7 75.3 80.3 112.8 79.5C150.3 78.7 187.7 73.3 225.2 71.3C262.7 69.3 300.3 70.7 337.8 69.8C375.3 69 412.7 66 450.2 66.3C487.7 66.7 525.3 70.3 562.8 71.5C600.3 72.7 637.7 71.3 675.2 72.5C712.7 73.7 750.3 77.3 787.8 76.7C825.3 76 862.7 71 881.3 68.5L900 66L900 0L881.3 0C862.7 0 825.3 0 787.8 0C750.3 0 712.7 0 675.2 0C637.7 0 600.3 0 562.8 0C525.3 0 487.7 0 450.2 0C412.7 0 375.3 0 337.8 0C300.3 0 262.7 0 225.2 0C187.7 0 150.3 0 112.8 0C75.3 0 37.7 0 18.8 0L0 0Z" fill="#0f6d79"></path><path d="M0 60L18.8 59C37.7 58 75.3 56 112.8 55C150.3 54 187.7 54 225.2 55C262.7 56 300.3 58 337.8 59.2C375.3 60.3 412.7 60.7 450.2 58.5C487.7 56.3 525.3 51.7 562.8 48.2C600.3 44.7 637.7 42.3 675.2 43.3C712.7 44.3 750.3 48.7 787.8 49.8C825.3 51 862.7 49 881.3 48L900 47L900 0L881.3 0C862.7 0 825.3 0 787.8 0C750.3 0 712.7 0 675.2 0C637.7 0 600.3 0 562.8 0C525.3 0 487.7 0 450.2 0C412.7 0 375.3 0 337.8 0C300.3 0 262.7 0 225.2 0C187.7 0 150.3 0 112.8 0C75.3 0 37.7 0 18.8 0L0 0Z" fill="#255a6b"></path><path d="M0 23L18.8 22.8C37.7 22.7 75.3 22.3 112.8 22.7C150.3 23 187.7 24 225.2 25.3C262.7 26.7 300.3 28.3 337.8 29.8C375.3 31.3 412.7 32.7 450.2 33.2C487.7 33.7 525.3 33.3 562.8 32.2C600.3 31 637.7 29 675.2 28.2C712.7 27.3 750.3 27.7 787.8 27.7C825.3 27.7 862.7 27.3 881.3 27.2L900 27L900 0L881.3 0C862.7 0 825.3 0 787.8 0C750.3 0 712.7 0 675.2 0C637.7 0 600.3 0 562.8 0C525.3 0 487.7 0 450.2 0C412.7 0 375.3 0 337.8 0C300.3 0 262.7 0 225.2 0C187.7 0 150.3 0 112.8 0C75.3 0 37.7 0 18.8 0L0 0Z" fill="#2f4858"></path></svg>